  0
SECTION
  2
HEADER
  9
$ACADVER
  1
AC1009
  0
ENDSEC
  0
SECTION
  2
ENTITIES
  0
POLYLINE
  5
90
  8
Layer_0
  62
0
  66
1
  10
0
  20
0
  30
0
  0
VERTEX
  5
90
  8
Layer_0
  10
113.24474
  20
154.92957
  42
0.41420952
  0
VERTEX
  5
91
  8
Layer_0
  10
111.2447
  20
156.93002
  0
SEQEND
  0
POLYLINE
  5
93
  8
Layer_0
  62
0
  66
1
  10
0
  20
0
  30
0
  0
VERTEX
  5
93
  8
Layer_0
  10
97.528488
  20
156.93002
  42
0.41421356
  0
VERTEX
  5
94
  8
Layer_0
  10
95.528236
  20
154.92978
  0
SEQEND
  0
POLYLINE
  5
96
  8
Layer_0
  62
0
  66
1
  10
0
  20
0
  30
0
  0
VERTEX
  5
96
  8
Layer_0
  10
104.32315
  20
129.49805
  42
0.41419729
  0
VERTEX
  5
97
  8
Layer_0
  10
102.83075
  20
128.00598
  42
0.41421085
  0
VERTEX
  5
98
  8
Layer_0
  10
104.32278
  20
126.51355
  42
0.41420814
  0
VERTEX
  5
99
  8
Layer_0
  10
105.81525
  20
128.00552
  42
0.41420815
  0
VERTEX
  5
9a
  8
Layer_0
  10
104.32315
  20
129.49805
  0
SEQEND
  0
POLYLINE
  5
9c
  8
Layer_0
  62
0
  66
1
  10
0
  20
0
  30
0
  0
VERTEX
  5
9c
  8
Layer_0
  10
107.40273
  20
153.94553
  0
VERTEX
  5
9d
  8
Layer_0
  10
107.40273
  20
150.89752
  0
VERTEX
  5
9e
  8
Layer_0
  10
101.37023
  20
150.89752
  0
VERTEX
  5
9f
  8
Layer_0
  10
101.37023
  20
153.94553
  0
VERTEX
  5
a0
  8
Layer_0
  10
107.40273
  20
153.94553
  0
SEQEND
  0
POLYLINE
  5
a2
  8
Layer_0
  62
0
  66
1
  10
0
  20
0
  30
0
  0
VERTEX
  5
a2
  8
Layer_0
  10
111.27624
  20
156.93002
  0
VERTEX
  5
a3
  8
Layer_0
  10
97.560242
  20
156.93002
  0
SEQEND
  0
POLYLINE
  5
a5
  8
Layer_0
  62
0
  66
1
  10
0
  20
0
  30
0
  0
VERTEX
  5
a5
  8
Layer_0
  10
95.528236
  20
154.89804
  0
VERTEX
  5
a6
  8
Layer_0
  10
95.528236
  20
150.89752
  0
VERTEX
  5
a7
  8
Layer_0
  10
98.068237
  20
150.89752
  0
VERTEX
  5
a8
  8
Layer_0
  10
98.068245
  20
122.89403
  0
VERTEX
  5
a9
  8
Layer_0
  10
110.76825
  20
122.89403
  0
VERTEX
  5
aa
  8
Layer_0
  10
110.76824
  20
150.89752
  0
VERTEX
  5
ab
  8
Layer_0
  10
113.24474
  20
150.89752
  0
VERTEX
  5
ac
  8
Layer_0
  10
113.24474
  20
154.89804
  0
SEQEND
  0
POLYLINE
  5
ae
  8
Layer_0
  62
0
  66
1
  10
0
  20
0
  30
0
  0
VERTEX
  5
ae
  8
Layer_0
  10
102.51324
  20
143.75378
  42
0.41420492
  0
VERTEX
  5
af
  8
Layer_0
  10
104.38641
  20
141.88052
  42
0.41419412
  0
VERTEX
  5
b0
  8
Layer_0
  10
106.25974
  20
143.7536
  0
SEQEND
  0
POLYLINE
  5
b2
  8
Layer_0
  62
0
  66
1
  10
0
  20
0
  30
0
  0
VERTEX
  5
b2
  8
Layer_0
  10
102.51323
  20
143.72202
  0
VERTEX
  5
b3
  8
Layer_0
  10
102.51323
  20
147.02402
  0
SEQEND
  0
POLYLINE
  5
b5
  8
Layer_0
  62
0
  66
1
  10
0
  20
0
  30
0
  0
VERTEX
  5
b5
  8
Layer_0
  10
106.25974
  20
146.99207
  42
0.4142006
  0
VERTEX
  5
b6
  8
Layer_0
  10
104.38677
  20
148.86551
  42
0.4142006
  0
VERTEX
  5
b7
  8
Layer_0
  10
102.51324
  20
146.99265
  0
SEQEND
  0
POLYLINE
  5
b9
  8
Layer_0
  62
0
  66
1
  10
0
  20
0
  30
0
  0
VERTEX
  5
b9
  8
Layer_0
  10
106.32323
  20
147.02402
  0
VERTEX
  5
ba
  8
Layer_0
  10
106.32323
  20
143.72202
  0
SEQEND
  0
POLYLINE
  5
bc
  8
Layer_0
  62
0
  66
1
  10
0
  20
0
  30
0
  0
VERTEX
  5
bc
  8
Layer_0
  10
97.528496
  20
45.106522
  42
0.41421356
  0
VERTEX
  5
bd
  8
Layer_0
  10
95.528244
  20
43.106277
  0
SEQEND
  0
POLYLINE
  5
bf
  8
Layer_0
  62
0
  66
1
  10
0
  20
0
  30
0
  0
VERTEX
  5
bf
  8
Layer_0
  10
113.24475
  20
43.106079
  42
0.41420952
  0
VERTEX
  5
c0
  8
Layer_0
  10
111.24471
  20
45.106537
  0
SEQEND
  0
POLYLINE
  5
c2
  8
Layer_0
  62
0
  66
1
  10
0
  20
0
  30
0
  0
VERTEX
  5
c2
  8
Layer_0
  10
111.27625
  20
45.106522
  0
VERTEX
  5
c3
  8
Layer_0
  10
97.560249
  20
45.106522
  0
SEQEND
  0
POLYLINE
  5
c5
  8
Layer_0
  62
0
  66
1
  10
0
  20
0
  30
0
  0
VERTEX
  5
c5
  8
Layer_0
  10
95.528244
  20
43.074524
  0
VERTEX
  5
c6
  8
Layer_0
  10
95.528244
  20
39.07402
  0
VERTEX
  5
c7
  8
Layer_0
  10
98.068245
  20
39.07402
  0
VERTEX
  5
c8
  8
Layer_0
  10
98.068245
  20
11.070526
  0
VERTEX
  5
c9
  8
Layer_0
  10
110.76825
  20
11.070526
  0
VERTEX
  5
ca
  8
Layer_0
  10
110.76825
  20
39.07402
  0
VERTEX
  5
cb
  8
Layer_0
  10
113.24474
  20
39.07402
  0
VERTEX
  5
cc
  8
Layer_0
  10
113.24474
  20
43.074524
  0
SEQEND
  0
POLYLINE
  5
ce
  8
Layer_0
  62
0
  66
1
  10
0
  20
0
  30
0
  0
VERTEX
  5
ce
  8
Layer_0
  10
101.37024
  20
39.07402
  0
VERTEX
  5
cf
  8
Layer_0
  10
101.37024
  20
42.122025
  0
VERTEX
  5
d0
  8
Layer_0
  10
107.40274
  20
42.122025
  0
VERTEX
  5
d1
  8
Layer_0
  10
107.40274
  20
39.07402
  0
VERTEX
  5
d2
  8
Layer_0
  10
101.37024
  20
39.07402
  0
SEQEND
  0
POLYLINE
  5
d4
  8
Layer_0
  62
0
  66
1
  10
0
  20
0
  30
0
  0
VERTEX
  5
d4
  8
Layer_0
  10
102.51324
  20
31.898514
  0
VERTEX
  5
d5
  8
Layer_0
  10
102.51324
  20
35.200531
  0
SEQEND
  0
POLYLINE
  5
d7
  8
Layer_0
  62
0
  66
1
  10
0
  20
0
  30
0
  0
VERTEX
  5
d7
  8
Layer_0
  10
106.25975
  20
35.168594
  42
0.4142006
  0
VERTEX
  5
d8
  8
Layer_0
  10
104.38678
  20
37.042023
  42
0.4142006
  0
VERTEX
  5
d9
  8
Layer_0
  10
102.51325
  20
35.169144
  0
SEQEND
  0
POLYLINE
  5
db
  8
Layer_0
  62
0
  66
1
  10
0
  20
0
  30
0
  0
VERTEX
  5
db
  8
Layer_0
  10
106.32324
  20
35.200531
  0
VERTEX
  5
dc
  8
Layer_0
  10
106.32324
  20
31.898514
  0
SEQEND
  0
POLYLINE
  5
de
  8
Layer_0
  62
0
  66
1
  10
0
  20
0
  30
0
  0
VERTEX
  5
de
  8
Layer_0
  10
102.51325
  20
31.930283
  42
0.41420492
  0
VERTEX
  5
df
  8
Layer_0
  10
104.38641
  20
30.057037
  42
0.41420276
  0
VERTEX
  5
e0
  8
Layer_0
  10
106.25975
  20
31.930099
  0
SEQEND
  0
POLYLINE
  5
e2
  8
Layer_0
  62
0
  66
1
  10
0
  20
0
  30
0
  0
VERTEX
  5
e2
  8
Layer_0
  10
104.51364
  20
17.67453
  42
0.41420272
  0
VERTEX
  5
e3
  8
Layer_0
  10
103.02124
  20
16.182465
  42
0.41420001
  0
VERTEX
  5
e4
  8
Layer_0
  10
104.51328
  20
14.690018
  42
0.41420272
  0
VERTEX
  5
e5
  8
Layer_0
  10
106.00574
  20
16.182022
  42
0.41420544
  0
VERTEX
  5
e6
  8
Layer_0
  10
104.51364
  20
17.67453
  0
SEQEND
  0
POLYLINE
  5
e8
  8
Layer_0
  62
0
  66
1
  10
0
  20
0
  30
0
  0
VERTEX
  5
e8
  8
Layer_0
  10
85.43174
  20
157.88251
  0
VERTEX
  5
e9
  8
Layer_0
  10
85.43174
  20
151.91351
  0
VERTEX
  5
ea
  8
Layer_0
  10
11.771729
  20
151.91351
  0
VERTEX
  5
eb
  8
Layer_0
  10
11.771729
  20
157.88251
  0
VERTEX
  5
ec
  8
Layer_0
  10
85.43174
  20
157.88251
  0
SEQEND
  0
POLYLINE
  5
ee
  8
Layer_0
  62
0
  66
1
  10
0
  20
0
  30
0
  0
VERTEX
  5
ee
  8
Layer_0
  10
90.892738
  20
127.87892
  42
0.41421356
  0
VERTEX
  5
ef
  8
Layer_0
  10
92.384811
  20
126.38654
  42
0.41420543
  0
VERTEX
  5
f0
  8
Layer_0
  10
93.877243
  20
127.87856
  42
0.41421356
  0
VERTEX
  5
f1
  8
Layer_0
  10
92.385246
  20
129.371
  42
0.41421086
  0
VERTEX
  5
f2
  8
Layer_0
  10
90.892738
  20
127.87892
  0
SEQEND
  0
POLYLINE
  5
f4
  8
Layer_0
  62
0
  66
1
  10
0
  20
0
  30
0
  0
VERTEX
  5
f4
  8
Layer_0
  10
94.25824
  20
131.40302
  0
VERTEX
  5
f5
  8
Layer_0
  10
90.575241
  20
131.40302
  0
SEQEND
  0
POLYLINE
  5
f7
  8
Layer_0
  62
0
  66
1
  10
0
  20
0
  30
0
  0
VERTEX
  5
f7
  8
Layer_0
  10
94.279953
  20
131.36591
  0
VERTEX
  5
f8
  8
Layer_0
  10
94.214088
  20
131.40091
  0
SEQEND
  0
POLYLINE
  5
fa
  8
Layer_0
  62
0
  66
1
  10
0
  20
0
  30
0
  0
VERTEX
  5
fa
  8
Layer_0
  10
95.972748
  20
124.41803
  0
VERTEX
  5
fb
  8
Layer_0
  10
95.655251
  20
125.75154
  0
VERTEX
  5
fc
  8
Layer_0
  10
95.337738
  20
126.89453
  0
VERTEX
  5
fd
  8
Layer_0
  10
95.147247
  20
127.91054
  0
VERTEX
  5
fe
  8
Layer_0
  10
94.89325
  20
128.73602
  0
VERTEX
  5
ff
  8
Layer_0
  10
94.575737
  20
130.19653
  0
VERTEX
  5
100
  8
Layer_0
  10
94.321739
  20
131.40302
  0
SEQEND
  0
POLYLINE
  5
102
  8
Layer_0
  62
0
  66
1
  10
0
  20
0
  30
0
  0
VERTEX
  5
102
  8
Layer_0
  10
95.972748
  20
123.91002
  0
VERTEX
  5
103
  8
Layer_0
  10
95.972748
  20
124.41803
  0
SEQEND
  0
POLYLINE
  5
105
  8
Layer_0
  62
0
  66
1
  10
0
  20
0
  30
0
  0
VERTEX
  5
105
  8
Layer_0
  10
93.52774
  20
121.43353
  42
0.4142184
  0
VERTEX
  5
106
  8
Layer_0
  10
96.036232
  20
123.94153
  0
SEQEND
  0
POLYLINE
  5
108
  8
Layer_0
  62
0
  66
1
  10
0
  20
0
  30
0
  0
VERTEX
  5
108
  8
Layer_0
  10
87.400238
  20
127.08502
  0
VERTEX
  5
109
  8
Layer_0
  10
87.400238
  20
121.43352
  0
VERTEX
  5
10a
  8
Layer_0
  10
93.496239
  20
121.43352
  0
SEQEND
  0
POLYLINE
  5
10c
  8
Layer_0
  62
0
  66
1
  10
0
  20
0
  30
0
  0
VERTEX
  5
10c
  8
Layer_0
  10
90.257744
  20
131.27603
  0
VERTEX
  5
10d
  8
Layer_0
  10
89.686241
  20
130.13303
  0
VERTEX
  5
10e
  8
Layer_0
  10
88.98774
  20
129.05353
  0
VERTEX
  5
10f
  8
Layer_0
  10
88.225739
  20
128.03754
  0
VERTEX
  5
110
  8
Layer_0
  10
87.400238
  20
127.08502
  0
SEQEND
  0
POLYLINE
  5
112
  8
Layer_0
  62
0
  66
1
  10
0
  20
0
  30
0
  0
VERTEX
  5
112
  8
Layer_0
  10
90.556229
  20
131.40109
  42
0.020215593
  0
VERTEX
  5
113
  8
Layer_0
  10
90.278152
  20
131.24213
  0
SEQEND
  0
POLYLINE
  5
115
  8
Layer_0
  62
0
  66
1
  10
0
  20
0
  30
0
  0
VERTEX
  5
115
  8
Layer_0
  10
90.892731
  20
145.02393
  42
0.41421899
  0
VERTEX
  5
116
  8
Layer_0
  10
92.384804
  20
143.53156
  42
0.41421085
  0
VERTEX
  5
117
  8
Layer_0
  10
93.877235
  20
145.02356
  42
0.41421356
  0
VERTEX
  5
118
  8
Layer_0
  10
92.385239
  20
146.51602
  42
0.41421086
  0
VERTEX
  5
119
  8
Layer_0
  10
90.892731
  20
145.02393
  0
SEQEND
  0
POLYLINE
  5
11b
  8
Layer_0
  62
0
  66
1
  10
0
  20
0
  30
0
  0
VERTEX
  5
11b
  8
Layer_0
  10
94.194733
  20
148.54803
  0
VERTEX
  5
11c
  8
Layer_0
  10
90.511734
  20
148.54803
  0
SEQEND
  0
POLYLINE
  5
11e
  8
Layer_0
  62
0
  66
1
  10
0
  20
0
  30
0
  0
VERTEX
  5
11e
  8
Layer_0
  10
94.279945
  20
148.51093
  0
VERTEX
  5
11f
  8
Layer_0
  10
94.214081
  20
148.5459
  0
SEQEND
  0
POLYLINE
  5
121
  8
Layer_0
  62
0
  66
1
  10
0
  20
0
  30
0
  0
VERTEX
  5
121
  8
Layer_0
  10
95.97274
  20
141.56302
  0
VERTEX
  5
122
  8
Layer_0
  10
95.655243
  20
142.89651
  0
VERTEX
  5
123
  8
Layer_0
  10
95.33773
  20
144.03952
  0
VERTEX
  5
124
  8
Layer_0
  10
95.083733
  20
145.05551
  0
VERTEX
  5
125
  8
Layer_0
  10
94.893242
  20
145.94452
  0
VERTEX
  5
126
  8
Layer_0
  10
94.575729
  20
147.34152
  0
VERTEX
  5
127
  8
Layer_0
  10
94.321732
  20
148.54803
  0
SEQEND
  0
POLYLINE
  5
129
  8
Layer_0
  62
0
  66
1
  10
0
  20
0
  30
0
  0
VERTEX
  5
129
  8
Layer_0
  10
95.97274
  20
141.05502
  0
VERTEX
  5
12a
  8
Layer_0
  10
95.97274
  20
141.56302
  0
SEQEND
  0
POLYLINE
  5
12c
  8
Layer_0
  62
0
  66
1
  10
0
  20
0
  30
0
  0
VERTEX
  5
12c
  8
Layer_0
  10
93.464233
  20
138.57852
  42
0.4142184
  0
VERTEX
  5
12d
  8
Layer_0
  10
95.972725
  20
141.08652
  0
SEQEND
  0
POLYLINE
  5
12f
  8
Layer_0
  62
0
  66
1
  10
0
  20
0
  30
0
  0
VERTEX
  5
12f
  8
Layer_0
  10
87.40023
  20
144.23001
  0
VERTEX
  5
130
  8
Layer_0
  10
87.40023
  20
138.57852
  0
VERTEX
  5
131
  8
Layer_0
  10
93.496231
  20
138.57852
  0
SEQEND
  0
POLYLINE
  5
133
  8
Layer_0
  62
0
  66
1
  10
0
  20
0
  30
0
  0
VERTEX
  5
133
  8
Layer_0
  10
90.257736
  20
148.42102
  0
VERTEX
  5
134
  8
Layer_0
  10
89.686234
  20
147.27802
  0
VERTEX
  5
135
  8
Layer_0
  10
88.987732
  20
146.19852
  0
VERTEX
  5
136
  8
Layer_0
  10
88.225731
  20
145.18253
  0
VERTEX
  5
137
  8
Layer_0
  10
87.40023
  20
144.23001
  0
SEQEND
  0
POLYLINE
  5
139
  8
Layer_0
  62
0
  66
1
  10
0
  20
0
  30
0
  0
VERTEX
  5
139
  8
Layer_0
  10
90.556221
  20
148.54608
  42
0.020215593
  0
VERTEX
  5
13a
  8
Layer_0
  10
90.278145
  20
148.38712
  0
SEQEND
  0
POLYLINE
  5
13c
  8
Layer_0
  62
0
  66
1
  10
0
  20
0
  30
0
  0
VERTEX
  5
13c
  8
Layer_0
  10
91.01973
  20
30.215927
  42
0.41420272
  0
VERTEX
  5
13d
  8
Layer_0
  10
92.511803
  20
28.723526
  42
0.41420543
  0
VERTEX
  5
13e
  8
Layer_0
  10
94.004242
  20
30.215561
  42
0.41420001
  0
VERTEX
  5
13f
  8
Layer_0
  10
92.512245
  20
31.708023
  42
0.41421086
  0
VERTEX
  5
140
  8
Layer_0
  10
91.01973
  20
30.215927
  0
SEQEND
  0
POLYLINE
  5
142
  8
Layer_0
  62
0
  66
1
  10
0
  20
0
  30
0
  0
VERTEX
  5
142
  8
Layer_0
  10
94.321739
  20
33.803528
  0
VERTEX
  5
143
  8
Layer_0
  10
90.638748
  20
33.803528
  0
SEQEND
  0
POLYLINE
  5
145
  8
Layer_0
  62
0
  66
1
  10
0
  20
0
  30
0
  0
VERTEX
  5
145
  8
Layer_0
  10
94.40696
  20
33.702927
  0
VERTEX
  5
146
  8
Layer_0
  10
94.341095
  20
33.737915
  0
SEQEND
  0
POLYLINE
  5
148
  8
Layer_0
  62
0
  66
1
  10
0
  20
0
  30
0
  0
VERTEX
  5
148
  8
Layer_0
  10
96.099739
  20
26.75502
  0
VERTEX
  5
149
  8
Layer_0
  10
95.782242
  20
28.152023
  0
VERTEX
  5
14a
  8
Layer_0
  10
95.464745
  20
29.295013
  0
VERTEX
  5
14b
  8
Layer_0
  10
95.210747
  20
30.247528
  0
VERTEX
  5
14c
  8
Layer_0
  10
95.020241
  20
31.13652
  0
VERTEX
  5
14d
  8
Layer_0
  10
94.639244
  20
32.597031
  0
VERTEX
  5
14e
  8
Layer_0
  10
94.385246
  20
33.740021
  0
SEQEND
  0
POLYLINE
  5
150
  8
Layer_0
  62
0
  66
1
  10
0
  20
0
  30
0
  0
VERTEX
  5
150
  8
Layer_0
  10
96.099739
  20
26.247025
  0
VERTEX
  5
151
  8
Layer_0
  10
96.099739
  20
26.75502
  0
SEQEND
  0
POLYLINE
  5
153
  8
Layer_0
  62
0
  66
1
  10
0
  20
0
  30
0
  0
VERTEX
  5
153
  8
Layer_0
  10
93.59124
  20
23.770523
  42
0.41421518
  0
VERTEX
  5
154
  8
Layer_0
  10
96.099731
  20
26.278519
  0
SEQEND
  0
POLYLINE
  5
156
  8
Layer_0
  62
0
  66
1
  10
0
  20
0
  30
0
  0
VERTEX
  5
156
  8
Layer_0
  10
87.527245
  20
29.422028
  0
VERTEX
  5
157
  8
Layer_0
  10
87.527245
  20
23.770523
  0
VERTEX
  5
158
  8
Layer_0
  10
93.623245
  20
23.770523
  0
SEQEND
  0
POLYLINE
  5
15a
  8
Layer_0
  62
0
  66
1
  10
0
  20
0
  30
0
  0
VERTEX
  5
15a
  8
Layer_0
  10
90.38475
  20
33.613022
  0
VERTEX
  5
15b
  8
Layer_0
  10
89.81324
  20
32.470016
  0
VERTEX
  5
15c
  8
Layer_0
  10
89.114746
  20
31.390518
  0
VERTEX
  5
15d
  8
Layer_0
  10
88.352745
  20
30.374527
  0
VERTEX
  5
15e
  8
Layer_0
  10
87.527245
  20
29.422028
  0
SEQEND
  0
POLYLINE
  5
160
  8
Layer_0
  62
0
  66
1
  10
0
  20
0
  30
0
  0
VERTEX
  5
160
  8
Layer_0
  10
90.683235
  20
33.738083
  42
0.020155045
  0
VERTEX
  5
161
  8
Layer_0
  10
90.405159
  20
33.579132
  0
SEQEND
  0
POLYLINE
  5
163
  8
Layer_0
  62
0
  66
1
  10
0
  20
0
  30
0
  0
VERTEX
  5
163
  8
Layer_0
  10
90.511734
  20
15.039429
  42
0.41420272
  0
VERTEX
  5
164
  8
Layer_0
  10
92.003799
  20
13.547028
  42
0.41420543
  0
VERTEX
  5
165
  8
Layer_0
  10
93.496239
  20
15.039063
  42
0.41420272
  0
VERTEX
  5
166
  8
Layer_0
  10
92.004242
  20
16.53154
  42
0.41420544
  0
VERTEX
  5
167
  8
Layer_0
  10
90.511734
  20
15.039429
  0
SEQEND
  0
POLYLINE
  5
169
  8
Layer_0
  62
0
  66
1
  10
0
  20
0
  30
0
  0
VERTEX
  5
169
  8
Layer_0
  10
93.877243
  20
18.563522
  0
VERTEX
  5
16a
  8
Layer_0
  10
90.194244
  20
18.563522
  0
SEQEND
  0
POLYLINE
  5
16c
  8
Layer_0
  62
0
  66
1
  10
0
  20
0
  30
0
  0
VERTEX
  5
16c
  8
Layer_0
  10
93.898956
  20
18.526428
  0
VERTEX
  5
16d
  8
Layer_0
  10
93.833092
  20
18.561417
  0
SEQEND
  0
POLYLINE
  5
16f
  8
Layer_0
  62
0
  66
1
  10
0
  20
0
  30
0
  0
VERTEX
  5
16f
  8
Layer_0
  10
95.655251
  20
11.578537
  0
VERTEX
  5
170
  8
Layer_0
  10
95.274239
  20
12.912033
  0
VERTEX
  5
171
  8
Layer_0
  10
95.020241
  20
14.055023
  0
VERTEX
  5
172
  8
Layer_0
  10
94.766243
  20
15.07103
  0
VERTEX
  5
173
  8
Layer_0
  10
94.512238
  20
15.89653
  0
VERTEX
  5
174
  8
Layer_0
  10
94.19474
  20
17.357025
  0
VERTEX
  5
175
  8
Layer_0
  10
93.940742
  20
18.563522
  0
SEQEND
  0
POLYLINE
  5
177
  8
Layer_0
  62
0
  66
1
  10
0
  20
0
  30
0
  0
VERTEX
  5
177
  8
Layer_0
  10
95.655251
  20
11.070526
  0
VERTEX
  5
178
  8
Layer_0
  10
95.655251
  20
11.578537
  0
SEQEND
  0
POLYLINE
  5
17a
  8
Layer_0
  62
0
  66
1
  10
0
  20
0
  30
0
  0
VERTEX
  5
17a
  8
Layer_0
  10
93.146759
  20
8.5305176
  42
0.41421518
  0
VERTEX
  5
17b
  8
Layer_0
  10
95.655251
  20
11.038528
  0
SEQEND
  0
POLYLINE
  5
17d
  8
Layer_0
  62
0
  66
1
  10
0
  20
0
  30
0
  0
VERTEX
  5
17d
  8
Layer_0
  10
87.019241
  20
14.245529
  0
VERTEX
  5
17e
  8
Layer_0
  10
87.019241
  20
8.5940247
  0
VERTEX
  5
17f
  8
Layer_0
  10
93.115242
  20
8.5940247
  0
SEQEND
  0
POLYLINE
  5
181
  8
Layer_0
  62
0
  66
1
  10
0
  20
0
  30
0
  0
VERTEX
  5
181
  8
Layer_0
  10
89.876747
  20
18.436523
  0
VERTEX
  5
182
  8
Layer_0
  10
89.305244
  20
17.293518
  0
VERTEX
  5
183
  8
Layer_0
  10
88.670242
  20
16.21402
  0
VERTEX
  5
184
  8
Layer_0
  10
87.908241
  20
15.198029
  0
VERTEX
  5
185
  8
Layer_0
  10
87.019241
  20
14.245529
  0
SEQEND
  0
POLYLINE
  5
187
  8
Layer_0
  62
0
  66
1
  10
0
  20
0
  30
0
  0
VERTEX
  5
187
  8
Layer_0
  10
90.175232
  20
18.561584
  42
0.020177087
  0
VERTEX
  5
188
  8
Layer_0
  10
89.897156
  20
18.402634
  0
SEQEND
  0
POLYLINE
  5
18a
  8
Layer_0
  62
0
  66
1
  10
0
  20
0
  30
0
  0
VERTEX
  5
18a
  8
Layer_0
  10
97.528496
  20
82.381027
  42
0.41421356
  0
VERTEX
  5
18b
  8
Layer_0
  10
95.528244
  20
80.380768
  0
SEQEND
  0
POLYLINE
  5
18d
  8
Layer_0
  62
0
  66
1
  10
0
  20
0
  30
0
  0
VERTEX
  5
18d
  8
Layer_0
  10
113.24475
  20
80.3806
  42
0.41421356
  0
VERTEX
  5
18e
  8
Layer_0
  10
111.24471
  20
82.381027
  0
SEQEND
  0
POLYLINE
  5
190
  8
Layer_0
  62
0
  66
1
  10
0
  20
0
  30
0
  0
VERTEX
  5
190
  8
Layer_0
  10
104.51364
  20
54.949005
  42
0.41420814
  0
VERTEX
  5
191
  8
Layer_0
  10
103.02124
  20
53.456955
  42
0.41420001
  0
VERTEX
  5
192
  8
Layer_0
  10
104.51328
  20
51.964508
  42
0.41420272
  0
VERTEX
  5
193
  8
Layer_0
  10
106.00574
  20
53.456512
  42
0.41421086
  0
VERTEX
  5
194
  8
Layer_0
  10
104.51364
  20
54.949005
  0
SEQEND
  0
POLYLINE
  5
196
  8
Layer_0
  62
0
  66
1
  10
0
  20
0
  30
0
  0
VERTEX
  5
196
  8
Layer_0
  10
107.40274
  20
76.348526
  0
VERTEX
  5
197
  8
Layer_0
  10
107.40274
  20
79.333023
  0
VERTEX
  5
198
  8
Layer_0
  10
101.37024
  20
79.333023
  0
VERTEX
  5
199
  8
Layer_0
  10
101.37024
  20
76.348526
  0
VERTEX
  5
19a
  8
Layer_0
  10
107.40274
  20
76.348526
  0
SEQEND
  0
POLYLINE
  5
19c
  8
Layer_0
  62
0
  66
1
  10
0
  20
0
  30
0
  0
VERTEX
  5
19c
  8
Layer_0
  10
113.24474
  20
80.34903
  0
VERTEX
  5
19d
  8
Layer_0
  10
113.24474
  20
76.348526
  0
VERTEX
  5
19e
  8
Layer_0
  10
110.76825
  20
76.348526
  0
VERTEX
  5
19f
  8
Layer_0
  10
110.76825
  20
48.345016
  0
VERTEX
  5
1a0
  8
Layer_0
  10
98.068245
  20
48.345016
  0
VERTEX
  5
1a1
  8
Layer_0
  10
98.068245
  20
76.348526
  0
VERTEX
  5
1a2
  8
Layer_0
  10
95.528244
  20
76.348526
  0
VERTEX
  5
1a3
  8
Layer_0
  10
95.528244
  20
80.34903
  0
SEQEND
  0
POLYLINE
  5
1a5
  8
Layer_0
  62
0
  66
1
  10
0
  20
0
  30
0
  0
VERTEX
  5
1a5
  8
Layer_0
  10
97.560249
  20
82.381027
  0
VERTEX
  5
1a6
  8
Layer_0
  10
111.27625
  20
82.381027
  0
SEQEND
  0
POLYLINE
  5
1a8
  8
Layer_0
  62
0
  66
1
  10
0
  20
0
  30
0
  0
VERTEX
  5
1a8
  8
Layer_0
  10
102.51325
  20
69.141281
  42
0.4142006
  0
VERTEX
  5
1a9
  8
Layer_0
  10
104.38641
  20
67.268021
  42
0.41419844
  0
VERTEX
  5
1aa
  8
Layer_0
  10
106.25975
  20
69.141098
  0
SEQEND
  0
POLYLINE
  5
1ac
  8
Layer_0
  62
0
  66
1
  10
0
  20
0
  30
0
  0
VERTEX
  5
1ac
  8
Layer_0
  10
102.51324
  20
72.475021
  0
VERTEX
  5
1ad
  8
Layer_0
  10
102.51324
  20
69.173035
  0
SEQEND
  0
POLYLINE
  5
1af
  8
Layer_0
  62
0
  66
1
  10
0
  20
0
  30
0
  0
VERTEX
  5
1af
  8
Layer_0
  10
106.25975
  20
72.443069
  42
0.4142006
  0
VERTEX
  5
1b0
  8
Layer_0
  10
104.38678
  20
74.316513
  42
0.4142006
  0
VERTEX
  5
1b1
  8
Layer_0
  10
102.51325
  20
72.443634
  0
SEQEND
  0
POLYLINE
  5
1b3
  8
Layer_0
  62
0
  66
1
  10
0
  20
0
  30
0
  0
VERTEX
  5
1b3
  8
Layer_0
  10
106.32324
  20
69.173035
  0
VERTEX
  5
1b4
  8
Layer_0
  10
106.32324
  20
72.475021
  0
SEQEND
  0
POLYLINE
  5
1b6
  8
Layer_0
  62
0
  66
1
  10
0
  20
0
  30
0
  0
VERTEX
  5
1b6
  8
Layer_0
  10
113.24475
  20
117.52808
  42
0.41421356
  0
VERTEX
  5
1b7
  8
Layer_0
  10
111.24471
  20
119.5285
  0
SEQEND
  0
POLYLINE
  5
1b9
  8
Layer_0
  62
0
  66
1
  10
0
  20
0
  30
0
  0
VERTEX
  5
1b9
  8
Layer_0
  10
97.528496
  20
119.52853
  42
0.41421356
  0
VERTEX
  5
1ba
  8
Layer_0
  10
95.528244
  20
117.52826
  0
SEQEND
  0
POLYLINE
  5
1bc
  8
Layer_0
  62
0
  66
1
  10
0
  20
0
  30
0
  0
VERTEX
  5
1bc
  8
Layer_0
  10
97.560249
  20
119.52853
  0
VERTEX
  5
1bd
  8
Layer_0
  10
111.27625
  20
119.52853
  0
SEQEND
  0
POLYLINE
  5
1bf
  8
Layer_0
  62
0
  66
1
  10
0
  20
0
  30
0
  0
VERTEX
  5
1bf
  8
Layer_0
  10
113.24474
  20
117.49652
  0
VERTEX
  5
1c0
  8
Layer_0
  10
113.24474
  20
113.49602
  0
VERTEX
  5
1c1
  8
Layer_0
  10
110.76825
  20
113.49602
  0
VERTEX
  5
1c2
  8
Layer_0
  10
110.76825
  20
85.492508
  0
VERTEX
  5
1c3
  8
Layer_0
  10
98.068245
  20
85.492508
  0
VERTEX
  5
1c4
  8
Layer_0
  10
98.068245
  20
113.49602
  0
VERTEX
  5
1c5
  8
Layer_0
  10
95.528244
  20
113.49602
  0
VERTEX
  5
1c6
  8
Layer_0
  10
95.528244
  20
117.49652
  0
SEQEND
  0
POLYLINE
  5
1c8
  8
Layer_0
  62
0
  66
1
  10
0
  20
0
  30
0
  0
VERTEX
  5
1c8
  8
Layer_0
  10
101.37024
  20
116.48053
  0
VERTEX
  5
1c9
  8
Layer_0
  10
101.37024
  20
113.49602
  0
VERTEX
  5
1ca
  8
Layer_0
  10
107.40274
  20
113.49602
  0
VERTEX
  5
1cb
  8
Layer_0
  10
107.40274
  20
116.48053
  0
VERTEX
  5
1cc
  8
Layer_0
  10
101.37024
  20
116.48053
  0
SEQEND
  0
POLYLINE
  5
1ce
  8
Layer_0
  62
0
  66
1
  10
0
  20
0
  30
0
  0
VERTEX
  5
1ce
  8
Layer_0
  10
106.32324
  20
106.32053
  0
VERTEX
  5
1cf
  8
Layer_0
  10
106.32324
  20
109.62253
  0
SEQEND
  0
POLYLINE
  5
1d1
  8
Layer_0
  62
0
  66
1
  10
0
  20
0
  30
0
  0
VERTEX
  5
1d1
  8
Layer_0
  10
102.51325
  20
106.28877
  42
0.41420492
  0
VERTEX
  5
1d2
  8
Layer_0
  10
104.38641
  20
104.41553
  42
0.41419844
  0
VERTEX
  5
1d3
  8
Layer_0
  10
106.25975
  20
106.2886
  0
SEQEND
  0
POLYLINE
  5
1d5
  8
Layer_0
  62
0
  66
1
  10
0
  20
0
  30
0
  0
VERTEX
  5
1d5
  8
Layer_0
  10
102.51324
  20
109.62253
  0
VERTEX
  5
1d6
  8
Layer_0
  10
102.51324
  20
106.32053
  0
SEQEND
  0
POLYLINE
  5
1d8
  8
Layer_0
  62
0
  66
1
  10
0
  20
0
  30
0
  0
VERTEX
  5
1d8
  8
Layer_0
  10
106.25975
  20
109.59058
  42
0.4142006
  0
VERTEX
  5
1d9
  8
Layer_0
  10
104.38678
  20
111.46402
  42
0.41419628
  0
VERTEX
  5
1da
  8
Layer_0
  10
102.51325
  20
109.59113
  0
SEQEND
  0
POLYLINE
  5
1dc
  8
Layer_0
  62
0
  66
1
  10
0
  20
0
  30
0
  0
VERTEX
  5
1dc
  8
Layer_0
  10
104.32315
  20
92.096527
  42
0.41420814
  0
VERTEX
  5
1dd
  8
Layer_0
  10
102.83075
  20
90.604477
  42
0.41421085
  0
VERTEX
  5
1de
  8
Layer_0
  10
104.32278
  20
89.112045
  42
0.41420814
  0
VERTEX
  5
1df
  8
Layer_0
  10
105.81525
  20
90.604019
  42
0.41420815
  0
VERTEX
  5
1e0
  8
Layer_0
  10
104.32315
  20
92.096527
  0
SEQEND
  0
POLYLINE
  5
1e2
  8
Layer_0
  62
0
  66
1
  10
0
  20
0
  30
0
  0
VERTEX
  5
1e2
  8
Layer_0
  10
52.633789
  20
115.46454
  42
0.41420952
  0
VERTEX
  5
1e3
  8
Layer_0
  10
54.634247
  20
117.4646
  0
SEQEND
  0
POLYLINE
  5
1e5
  8
Layer_0
  62
0
  66
1
  10
0
  20
0
  30
0
  0
VERTEX
  5
1e5
  8
Layer_0
  10
54.634247
  20
119.49658
  42
0.41421356
  0
VERTEX
  5
1e6
  8
Layer_0
  10
52.634186
  20
121.49701
  0
SEQEND
  0
POLYLINE
  5
1e8
  8
Layer_0
  62
0
  66
1
  10
0
  20
0
  30
0
  0
VERTEX
  5
1e8
  8
Layer_0
  10
44.632996
  20
121.49701
  42
0.41421356
  0
VERTEX
  5
1e9
  8
Layer_0
  10
42.632736
  20
119.49677
  0
SEQEND
  0
POLYLINE
  5
1eb
  8
Layer_0
  62
0
  66
1
  10
0
  20
0
  30
0
  0
VERTEX
  5
1eb
  8
Layer_0
  10
42.632736
  20
117.46478
  42
0.41421356
  0
VERTEX
  5
1ec
  8
Layer_0
  10
44.632996
  20
115.46454
  0
SEQEND
  0
POLYLINE
  5
1ee
  8
Layer_0
  62
0
  66
1
  10
0
  20
0
  30
0
  0
VERTEX
  5
1ee
  8
Layer_0
  10
54.634232
  20
119.46503
  0
VERTEX
  5
1ef
  8
Layer_0
  10
54.634232
  20
117.49652
  0
SEQEND
  0
POLYLINE
  5
1f1
  8
Layer_0
  62
0
  66
1
  10
0
  20
0
  30
0
  0
VERTEX
  5
1f1
  8
Layer_0
  10
44.664734
  20
121.49701
  0
VERTEX
  5
1f2
  8
Layer_0
  10
52.665741
  20
121.49701
  0
SEQEND
  0
POLYLINE
  5
1f4
  8
Layer_0
  62
0
  66
1
  10
0
  20
0
  30
0
  0
VERTEX
  5
1f4
  8
Layer_0
  10
42.632736
  20
117.49652
  0
VERTEX
  5
1f5
  8
Layer_0
  10
42.632736
  20
119.46503
  0
SEQEND
  0
POLYLINE
  5
1f7
  8
Layer_0
  62
0
  66
1
  10
0
  20
0
  30
0
  0
VERTEX
  5
1f7
  8
Layer_0
  10
52.665741
  20
115.46452
  0
VERTEX
  5
1f8
  8
Layer_0
  10
44.664734
  20
115.46452
  0
SEQEND
  0
POLYLINE
  5
1fa
  8
Layer_0
  62
0
  66
1
  10
0
  20
0
  30
0
  0
VERTEX
  5
1fa
  8
Layer_0
  10
71.525253
  20
44.090515
  0
VERTEX
  5
1fb
  8
Layer_0
  10
78.573746
  20
44.090515
  0
SEQEND
  0
POLYLINE
  5
1fd
  8
Layer_0
  62
0
  66
1
  10
0
  20
0
  30
0
  0
VERTEX
  5
1fd
  8
Layer_0
  10
69.556747
  20
26.120026
  0
VERTEX
  5
1fe
  8
Layer_0
  10
69.556747
  20
42.122025
  0
SEQEND
  0
POLYLINE
  5
200
  8
Layer_0
  62
0
  66
1
  10
0
  20
0
  30
0
  0
VERTEX
  5
200
  8
Layer_0
  10
80.542236
  20
42.122025
  0
VERTEX
  5
201
  8
Layer_0
  10
80.542236
  20
26.120026
  0
SEQEND
  0
POLYLINE
  5
203
  8
Layer_0
  62
0
  66
1
  10
0
  20
0
  30
0
  0
VERTEX
  5
203
  8
Layer_0
  10
78.573746
  20
24.088028
  0
VERTEX
  5
204
  8
Layer_0
  10
71.525253
  20
24.088028
  0
SEQEND
  0
POLYLINE
  5
206
  8
Layer_0
  62
0
  66
1
  10
0
  20
0
  30
0
  0
VERTEX
  5
206
  8
Layer_0
  10
38.124222
  20
130.35541
  42
0.41420814
  0
VERTEX
  5
207
  8
Layer_0
  10
39.616287
  20
128.86301
  42
0.41419729
  0
VERTEX
  5
208
  8
Layer_0
  10
41.108734
  20
130.35504
  42
0.41421356
  0
VERTEX
  5
209
  8
Layer_0
  10
39.61673
  20
131.8475
  42
0.41420815
  0
VERTEX
  5
20a
  8
Layer_0
  10
38.124222
  20
130.35541
  0
SEQEND
  0
POLYLINE
  5
20c
  8
Layer_0
  62
0
  66
1
  10
0
  20
0
  30
0
  0
VERTEX
  5
20c
  8
Layer_0
  10
56.158234
  20
130.35541
  42
0.41420814
  0
VERTEX
  5
20d
  8
Layer_0
  10
57.650299
  20
128.86301
  42
0.41419729
  0
VERTEX
  5
20e
  8
Layer_0
  10
59.142746
  20
130.35504
  42
0.41420814
  0
VERTEX
  5
20f
  8
Layer_0
  10
57.650742
  20
131.8475
  42
0.41420815
  0
VERTEX
  5
210
  8
Layer_0
  10
56.158234
  20
130.35541
  0
SEQEND
  0
POLYLINE
  5
212
  8
Layer_0
  62
0
  66
1
  10
0
  20
0
  30
0
  0
VERTEX
  5
212
  8
Layer_0
  10
47.14122
  20
140.38843
  42
0.41420814
  0
VERTEX
  5
213
  8
Layer_0
  10
48.633301
  20
138.89603
  42
0.41419729
  0
VERTEX
  5
214
  8
Layer_0
  10
50.125732
  20
140.38806
  42
0.41421356
  0
VERTEX
  5
215
  8
Layer_0
  10
48.633728
  20
141.88052
  42
0.41420815
  0
VERTEX
  5
216
  8
Layer_0
  10
47.14122
  20
140.38843
  0
SEQEND
  0
POLYLINE
  5
218
  8
Layer_0
  62
0
  66
1
  10
0
  20
0
  30
0
  0
VERTEX
  5
218
  8
Layer_0
  10
18.725006
  20
44.0905
  42
0.41421356
  0
VERTEX
  5
219
  8
Layer_0
  10
16.724762
  20
42.090256
  0
SEQEND
  0
POLYLINE
  5
21b
  8
Layer_0
  62
0
  66
1
  10
0
  20
0
  30
0
  0
VERTEX
  5
21b
  8
Layer_0
  10
16.724762
  20
26.12001
  0
VERTEX
  5
21c
  8
Layer_0
  10
16.724762
  20
42.122009
  0
SEQEND
  0
POLYLINE
  5
21e
  8
Layer_0
  62
0
  66
1
  10
0
  20
0
  30
0
  0
VERTEX
  5
21e
  8
Layer_0
  10
27.773743
  20
42.090057
  42
0.41420952
  0
VERTEX
  5
21f
  8
Layer_0
  10
25.773697
  20
44.090515
  0
SEQEND
  0
POLYLINE
  5
221
  8
Layer_0
  62
0
  66
1
  10
0
  20
0
  30
0
  0
VERTEX
  5
221
  8
Layer_0
  10
18.756744
  20
44.0905
  0
VERTEX
  5
222
  8
Layer_0
  10
25.74176
  20
44.0905
  0
SEQEND
  0
POLYLINE
  5
224
  8
Layer_0
  62
0
  66
1
  10
0
  20
0
  30
0
  0
VERTEX
  5
224
  8
Layer_0
  10
16.724762
  20
26.088272
  42
0.41421356
  0
VERTEX
  5
225
  8
Layer_0
  10
18.725006
  20
24.088013
  0
SEQEND
  0
POLYLINE
  5
227
  8
Layer_0
  62
0
  66
1
  10
0
  20
0
  30
0
  0
VERTEX
  5
227
  8
Layer_0
  10
25.74176
  20
24.088013
  0
VERTEX
  5
228
  8
Layer_0
  10
18.756744
  20
24.088013
  0
SEQEND
  0
POLYLINE
  5
22a
  8
Layer_0
  62
0
  66
1
  10
0
  20
0
  30
0
  0
VERTEX
  5
22a
  8
Layer_0
  10
25.7733
  20
24.088013
  42
0.41421356
  0
VERTEX
  5
22b
  8
Layer_0
  10
27.773743
  20
26.088058
  0
SEQEND
  0
POLYLINE
  5
22d
  8
Layer_0
  62
0
  66
1
  10
0
  20
0
  30
0
  0
VERTEX
  5
22d
  8
Layer_0
  10
27.773743
  20
42.122009
  0
VERTEX
  5
22e
  8
Layer_0
  10
27.773743
  20
26.12001
  0
SEQEND
  0
POLYLINE
  5
230
  8
Layer_0
  62
0
  66
1
  10
0
  20
0
  30
0
  0
VERTEX
  5
230
  8
Layer_0
  10
80.542252
  20
42.090073
  42
0.41420952
  0
VERTEX
  5
231
  8
Layer_0
  10
78.542206
  20
44.09053
  0
SEQEND
  0
POLYLINE
  5
233
  8
Layer_0
  62
0
  66
1
  10
0
  20
0
  30
0
  0
VERTEX
  5
233
  8
Layer_0
  10
71.556992
  20
44.090515
  42
0.41421356
  0
VERTEX
  5
234
  8
Layer_0
  10
69.556747
  20
42.090271
  0
SEQEND
  0
POLYLINE
  5
236
  8
Layer_0
  62
0
  66
1
  10
0
  20
0
  30
0
  0
VERTEX
  5
236
  8
Layer_0
  10
78.541794
  20
24.088028
  42
0.41420952
  0
VERTEX
  5
237
  8
Layer_0
  10
80.542252
  20
26.088074
  0
SEQEND
  0
POLYLINE
  5
239
  8
Layer_0
  62
0
  66
1
  10
0
  20
0
  30
0
  0
VERTEX
  5
239
  8
Layer_0
  10
69.556747
  20
26.088287
  42
0.41421356
  0
VERTEX
  5
23a
  8
Layer_0
  10
71.557007
  20
24.088028
  0
SEQEND
  0
POLYLINE
  5
23c
  8
Layer_0
  62
0
  66
1
  10
0
  20
0
  30
0
  0
VERTEX
  5
23c
  8
Layer_0
  10
6.7552338
  20
94.63652
  0
VERTEX
  5
23d
  8
Layer_0
  10
11.771729
  20
99.653
  0
SEQEND
  0
POLYLINE
  5
23f
  8
Layer_0
  62
0
  66
1
  10
0
  20
0
  30
0
  0
VERTEX
  5
23f
  8
Layer_0
  10
11.771744
  20
35.645004
  0
VERTEX
  5
240
  8
Layer_0
  10
6.755249
  20
40.661499
  0
SEQEND
  0
POLYLINE
  5
242
  8
Layer_0
  62
0
  66
1
  10
0
  20
0
  30
0
  0
VERTEX
  5
242
  8
Layer_0
  10
35.584244
  20
91.112259
  42
0.41420836
  0
VERTEX
  5
243
  8
Layer_0
  10
34.028534
  20
92.667999
  42
0.41420836
  0
VERTEX
  5
244
  8
Layer_0
  10
32.472733
  20
91.112305
  42
0.41420316
  0
VERTEX
  5
245
  8
Layer_0
  10
34.028381
  20
89.556519
  42
0.41420317
  0
VERTEX
  5
246
  8
Layer_0
  10
35.584244
  20
91.112259
  0
SEQEND
  0
POLYLINE
  5
248
  8
Layer_0
  62
0
  66
1
  10
0
  20
0
  30
0
  0
VERTEX
  5
248
  8
Layer_0
  10
12.216232
  20
45.074753
  42
0.41420836
  0
VERTEX
  5
249
  8
Layer_0
  10
10.660507
  20
46.630508
  42
0.41420836
  0
VERTEX
  5
24a
  8
Layer_0
  10
9.1047516
  20
45.074829
  42
0.41420836
  0
VERTEX
  5
24b
  8
Layer_0
  10
10.660385
  20
43.519012
  42
0.41421357
  0
VERTEX
  5
24c
  8
Layer_0
  10
12.216232
  20
45.074753
  0
SEQEND
  0
POLYLINE
  5
24e
  8
Layer_0
  62
0
  66
1
  10
0
  20
0
  30
0
  0
VERTEX
  5
24e
  8
Layer_0
  10
35.647751
  20
45.074768
  42
0.41420856
  0
VERTEX
  5
24f
  8
Layer_0
  10
34.028534
  20
46.694016
  42
0.41420856
  0
VERTEX
  5
250
  8
Layer_0
  10
32.409256
  20
45.074829
  42
0.41420856
  0
VERTEX
  5
251
  8
Layer_0
  10
34.028381
  20
43.455521
  42
0.41420857
  0
VERTEX
  5
252
  8
Layer_0
  10
35.647751
  20
45.074768
  0
SEQEND
  0
POLYLINE
  5
254
  8
Layer_0
  62
0
  66
1
  10
0
  20
0
  30
0
  0
VERTEX
  5
254
  8
Layer_0
  10
12.216217
  20
91.112244
  42
0.41420836
  0
VERTEX
  5
255
  8
Layer_0
  10
10.660507
  20
92.667984
  42
0.41421356
  0
VERTEX
  5
256
  8
Layer_0
  10
9.1047363
  20
91.112305
  42
0.41420836
  0
VERTEX
  5
257
  8
Layer_0
  10
10.66037
  20
89.556503
  42
0.41420837
  0
VERTEX
  5
258
  8
Layer_0
  10
12.216217
  20
91.112244
  0
SEQEND
  0
POLYLINE
  5
25a
  8
Layer_0
  62
0
  66
1
  10
0
  20
0
  30
0
  0
VERTEX
  5
25a
  8
Layer_0
  10
6.755249
  20
40.661499
  0
VERTEX
  5
25b
  8
Layer_0
  10
6.7552338
  20
94.63652
  0
SEQEND
  0
POLYLINE
  5
25d
  8
Layer_0
  62
0
  66
1
  10
0
  20
0
  30
0
  0
VERTEX
  5
25d
  8
Layer_0
  10
11.771729
  20
143.21405
  0
VERTEX
  5
25e
  8
Layer_0
  10
11.771729
  20
99.653
  0
SEQEND
  0
POLYLINE
  5
260
  8
Layer_0
  62
0
  66
1
  10
0
  20
0
  30
0
  0
VERTEX
  5
260
  8
Layer_0
  10
11.771744
  20
35.645004
  0
VERTEX
  5
261
  8
Layer_0
  10
11.771744
  20
21.103516
  0
SEQEND
  0
POLYLINE
  5
263
  8
Layer_0
  62
0
  66
1
  10
0
  20
0
  30
0
  0
VERTEX
  5
263
  8
Layer_0
  10
85.558739
  20
99.653015
  0
VERTEX
  5
264
  8
Layer_0
  10
85.558731
  20
143.21405
  0
SEQEND
  0
POLYLINE
  5
266
  8
Layer_0
  62
0
  66
1
  10
0
  20
0
  30
0
  0
VERTEX
  5
266
  8
Layer_0
  10
85.558739
  20
21.103531
  0
VERTEX
  5
267
  8
Layer_0
  10
85.558739
  20
35.64502
  0
SEQEND
  0
POLYLINE
  5
269
  8
Layer_0
  62
0
  66
1
  10
0
  20
0
  30
0
  0
VERTEX
  5
269
  8
Layer_0
  10
80.542229
  20
148.23053
  0
VERTEX
  5
26a
  8
Layer_0
  10
16.724747
  20
148.23053
  0
SEQEND
  0
POLYLINE
  5
26c
  8
Layer_0
  62
0
  66
1
  10
0
  20
0
  30
0
  0
VERTEX
  5
26c
  8
Layer_0
  10
28.789749
  20
6.1175079
  0
VERTEX
  5
26d
  8
Layer_0
  10
68.477249
  20
6.1175232
  0
SEQEND
  0
POLYLINE
  5
26f
  8
Layer_0
  62
0
  66
1
  10
0
  20
0
  30
0
  0
VERTEX
  5
26f
  8
Layer_0
  10
13.740234
  20
118.83
  0
VERTEX
  5
270
  8
Layer_0
  10
16.724747
  20
118.83
  0
VERTEX
  5
271
  8
Layer_0
  10
16.724747
  20
106.13
  0
VERTEX
  5
272
  8
Layer_0
  10
13.740234
  20
106.13
  0
VERTEX
  5
273
  8
Layer_0
  10
13.740234
  20
118.83
  0
SEQEND
  0
POLYLINE
  5
275
  8
Layer_0
  62
0
  66
1
  10
0
  20
0
  30
0
  0
VERTEX
  5
275
  8
Layer_0
  10
35.012741
  20
12.562775
  42
0.41420429
  0
VERTEX
  5
276
  8
Layer_0
  10
33.266541
  20
14.309006
  42
0.41420429
  0
VERTEX
  5
277
  8
Layer_0
  10
31.520233
  20
12.562836
  42
0.41419966
  0
VERTEX
  5
278
  8
Layer_0
  10
33.266357
  20
10.816498
  42
0.4142043
  0
VERTEX
  5
279
  8
Layer_0
  10
35.012741
  20
12.562775
  0
SEQEND
  0
POLYLINE
  5
27b
  8
Layer_0
  62
0
  66
1
  10
0
  20
0
  30
0
  0
VERTEX
  5
27b
  8
Layer_0
  10
35.012741
  20
31.549271
  42
0.41420429
  0
VERTEX
  5
27c
  8
Layer_0
  10
33.266541
  20
33.295517
  42
0.41419966
  0
VERTEX
  5
27d
  8
Layer_0
  10
31.520233
  20
31.549347
  42
0.41419966
  0
VERTEX
  5
27e
  8
Layer_0
  10
33.266357
  20
29.803009
  42
0.41420893
  0
VERTEX
  5
27f
  8
Layer_0
  10
35.012741
  20
31.549271
  0
SEQEND
  0
POLYLINE
  5
281
  8
Layer_0
  62
0
  66
1
  10
0
  20
0
  30
0
  0
VERTEX
  5
281
  8
Layer_0
  10
65.810257
  20
31.549271
  42
0.41420429
  0
VERTEX
  5
282
  8
Layer_0
  10
64.064056
  20
33.295532
  42
0.41419966
  0
VERTEX
  5
283
  8
Layer_0
  10
62.317749
  20
31.549362
  42
0.41419966
  0
VERTEX
  5
284
  8
Layer_0
  10
64.063873
  20
29.803024
  42
0.41420893
  0
VERTEX
  5
285
  8
Layer_0
  10
65.810257
  20
31.549271
  0
SEQEND
  0
POLYLINE
  5
287
  8
Layer_0
  62
0
  66
1
  10
0
  20
0
  30
0
  0
VERTEX
  5
287
  8
Layer_0
  10
61.55574
  20
106.19353
  0
VERTEX
  5
288
  8
Layer_0
  10
58.571228
  20
106.19353
  0
VERTEX
  5
289
  8
Layer_0
  10
58.571228
  20
118.89354
  0
VERTEX
  5
28a
  8
Layer_0
  10
61.55574
  20
118.89354
  0
VERTEX
  5
28b
  8
Layer_0
  10
61.55574
  20
106.19353
  0
SEQEND
  0
POLYLINE
  5
28d
  8
Layer_0
  62
0
  66
1
  10
0
  20
0
  30
0
  0
VERTEX
  5
28d
  8
Layer_0
  10
38.759232
  20
118.89354
  0
VERTEX
  5
28e
  8
Layer_0
  10
38.759232
  20
106.19353
  0
VERTEX
  5
28f
  8
Layer_0
  10
35.774734
  20
106.19353
  0
VERTEX
  5
290
  8
Layer_0
  10
35.774734
  20
118.89354
  0
VERTEX
  5
291
  8
Layer_0
  10
38.759232
  20
118.89354
  0
SEQEND
  0
POLYLINE
  5
293
  8
Layer_0
  62
0
  66
1
  10
0
  20
0
  30
0
  0
VERTEX
  5
293
  8
Layer_0
  10
80.542236
  20
106.19353
  0
VERTEX
  5
294
  8
Layer_0
  10
80.542236
  20
118.89354
  0
VERTEX
  5
295
  8
Layer_0
  10
83.526749
  20
118.89354
  0
VERTEX
  5
296
  8
Layer_0
  10
83.526749
  20
106.19353
  0
VERTEX
  5
297
  8
Layer_0
  10
80.542236
  20
106.19353
  0
SEQEND
  0
POLYLINE
  5
299
  8
Layer_0
  62
0
  66
1
  10
0
  20
0
  30
0
  0
VERTEX
  5
299
  8
Layer_0
  10
61.746231
  20
91.112411
  42
0.41420836
  0
VERTEX
  5
29a
  8
Layer_0
  10
63.301788
  20
89.556519
  42
0.41420836
  0
VERTEX
  5
29b
  8
Layer_0
  10
64.857727
  20
91.11203
  42
0.41420836
  0
VERTEX
  5
29c
  8
Layer_0
  10
63.302246
  20
92.667999
  42
0.41420837
  0
VERTEX
  5
29d
  8
Layer_0
  10
61.746231
  20
91.112411
  0
SEQEND
  0
POLYLINE
  5
29f
  8
Layer_0
  62
0
  66
1
  10
0
  20
0
  30
0
  0
VERTEX
  5
29f
  8
Layer_0
  10
85.050735
  20
91.112411
  42
0.41420576
  0
VERTEX
  5
2a0
  8
Layer_0
  10
86.606293
  20
89.556519
  42
0.41420576
  0
VERTEX
  5
2a1
  8
Layer_0
  10
88.162239
  20
91.11203
  42
0.41420576
  0
VERTEX
  5
2a2
  8
Layer_0
  10
86.606758
  20
92.667999
  42
0.41420577
  0
VERTEX
  5
2a3
  8
Layer_0
  10
85.050735
  20
91.112411
  0
SEQEND
  0
POLYLINE
  5
2a5
  8
Layer_0
  62
0
  66
1
  10
0
  20
0
  30
0
  0
VERTEX
  5
2a5
  8
Layer_0
  10
61.682755
  20
45.074936
  42
0.41420856
  0
VERTEX
  5
2a6
  8
Layer_0
  10
63.301788
  20
43.455521
  42
0.41420357
  0
VERTEX
  5
2a7
  8
Layer_0
  10
64.921249
  20
45.074539
  42
0.41420856
  0
VERTEX
  5
2a8
  8
Layer_0
  10
63.302261
  20
46.694016
  42
0.41420857
  0
VERTEX
  5
2a9
  8
Layer_0
  10
61.682755
  20
45.074936
  0
SEQEND
  0
POLYLINE
  5
2ab
  8
Layer_0
  62
0
  66
1
  10
0
  20
0
  30
0
  0
VERTEX
  5
2ab
  8
Layer_0
  10
85.050735
  20
45.074921
  42
0.41420576
  0
VERTEX
  5
2ac
  8
Layer_0
  10
86.606293
  20
43.519028
  42
0.41420576
  0
VERTEX
  5
2ad
  8
Layer_0
  10
88.162239
  20
45.074554
  42
0.41420576
  0
VERTEX
  5
2ae
  8
Layer_0
  10
86.606758
  20
46.630524
  42
0.41420577
  0
VERTEX
  5
2af
  8
Layer_0
  10
85.050735
  20
45.074921
  0
SEQEND
  0
POLYLINE
  5
2b1
  8
Layer_0
  62
0
  66
1
  10
0
  20
0
  30
0
  0
VERTEX
  5
2b1
  8
Layer_0
  10
85.558739
  20
99.653015
  0
VERTEX
  5
2b2
  8
Layer_0
  10
90.575241
  20
94.636536
  0
SEQEND
  0
POLYLINE
  5
2b4
  8
Layer_0
  62
0
  66
1
  10
0
  20
0
  30
0
  0
VERTEX
  5
2b4
  8
Layer_0
  10
90.575241
  20
94.636536
  0
VERTEX
  5
2b5
  8
Layer_0
  10
90.575241
  20
40.661514
  0
VERTEX
  5
2b6
  8
Layer_0
  10
85.558739
  20
35.64502
  0
SEQEND
  0
POLYLINE
  5
2b8
  8
Layer_0
  62
0
  66
1
  10
0
  20
0
  30
0
  0
VERTEX
  5
2b8
  8
Layer_0
  10
16.756485
  20
148.23053
  42
0.41421356
  0
VERTEX
  5
2b9
  8
Layer_0
  10
11.771729
  20
143.24576
  0
SEQEND
  0
POLYLINE
  5
2bb
  8
Layer_0
  62
0
  66
1
  10
0
  20
0
  30
0
  0
VERTEX
  5
2bb
  8
Layer_0
  10
85.558739
  20
143.24527
  42
0.41421356
  0
VERTEX
  5
2bc
  8
Layer_0
  10
80.574486
  20
148.23053
  0
SEQEND
  0
POLYLINE
  5
2be
  8
Layer_0
  62
0
  66
1
  10
0
  20
0
  30
0
  0
VERTEX
  5
2be
  8
Layer_0
  10
25.296738
  20
7.5774994
  42
0.19891237
  0
VERTEX
  5
2bf
  8
Layer_0
  10
28.821503
  20
6.1174927
  0
SEQEND
  0
POLYLINE
  5
2c1
  8
Layer_0
  62
0
  66
1
  10
0
  20
0
  30
0
  0
VERTEX
  5
2c1
  8
Layer_0
  10
68.445007
  20
6.1175232
  42
0.19891091
  0
VERTEX
  5
2c2
  8
Layer_0
  10
71.969894
  20
7.5771637
  0
SEQEND
  0
POLYLINE
  5
2c4
  8
Layer_0
  62
0
  66
1
  10
0
  20
0
  30
0
  0
VERTEX
  5
2c4
  8
Layer_0
  10
25.297256
  20
7.5780029
  0
VERTEX
  5
2c5
  8
Layer_0
  10
11.771744
  20
21.103516
  0
SEQEND
  0
POLYLINE
  5
2c7
  8
Layer_0
  62
0
  66
1
  10
0
  20
0
  30
0
  0
VERTEX
  5
2c7
  8
Layer_0
  10
85.558739
  20
21.103531
  0
VERTEX
  5
2c8
  8
Layer_0
  10
72.033249
  20
7.5780182
  0
SEQEND
  0
ENDSEC
  0
EOF
